# xmcd CD database file
#
# Track frame offsets:
#	150
#	21838
#	51176
#	78039
#	110887
#	137660
#	154758
#	189046
#	219869
#
# Disc length: 3327 seconds
#
# Revision: 0
# Processed by: cddbd v1.5.2PL0 Copyright (c) Steve Scherf et al.
# Submitted via: CDex 1.70beta2
#
DISCID=6b0cfd09
DTITLE=Lino Cannavacciuolo - Live
DYEAR=1900
DGENRE=Jazz
TTITLE0=Partenza
TTITLE1=Mondonovo
TTITLE2=Ca' Barbaro
TTITLE3=Viaggio
TTITLE4=Pulcinella Innamorato
TTITLE5=Carinnius
TTITLE6=Danze
TTITLE7=Saltimbanco
TTITLE8=Segesta - Titoli Di Coda
EXTD=
EXTT0=
EXTT1=
EXTT2=
EXTT3=
EXTT4=
EXTT5=
EXTT6=
EXTT7=
EXTT8=
PLAYORDER=
